PathFileType	4	(X/Y/Z)	C:/Users/beibeiliu/ov580/test_trc/User1\sequence.15_training_dense_right.trc
DataRate	CameraRate	NumFrames	NumMarkers	Units	OrigDataRate	OrigDataStartFrame	OrigNumFrames
120	120	25	19	mm	120	205	273
Frame#	Time	ThumbCMC			ThumbMCP			ThumbIP			ThumbTip			IndexMCP			IndexPIP			IndexTip			MiddleMCP			MiddlePIP			MiddleTip			RingMCP			RingPIP			RingTip			PinkyMCP			PinkyPIP			PinkyTip			BackHand1			BackHand2			BackHand3	
		X0	Y0	Z0	X1	Y1	Z1	X2	Y2	Z2	X3	Y3	Z3	X4	Y4	Z4	X5	Y5	Z5	X6	Y6	Z6	X7	Y7	Z7	X8	Y8	Z8	X9	Y9	Z9	X10	Y10	Z10	X11	Y11	Z11	X12	Y12	Z12	X13	Y13	Z13	X14	Y14	Z14	X15	Y15	Z15	X16	Y16	Z16	X17	Y17	Z17	X18	Y18	Z18	
204	1.7	131.967	91.8517	59.4134	111.868	83.3412	37.0756	93.02	85.5945	17.6843	76.9882	82.2316	5.42742	160.769	115.264	-25.0965	162.408	116.817	-49.8122	173.674	116.088	-75.6281	174.195	83.0115	-31.6118	161.063	51.5157	-31.8458	149.593	47.3543	6.06319	190.191	71.4971	-27.4022	176.285	40.0804	-22.6758	164.806	40.8995	8.75278	216.301	81.9316	-6.23406	223.294	83.4191	-25.9757	226.129	95.5781	-42.9727	200.814	97.906	34.3833	201.923	95.9827	67.7209	167.529	110.64	50.1905	
205	1.70833	133.07	94.6161	57.5729	109.49	88.8444	42.2166	93.1797	91.0894	21.7034	77.0825	90.7915	7.50995	161.63	115.318	-26.0155	165.139	117.485	-51.2048	172.782	117.644	-70.3671	176.898	86.0617	-29.344	163.492	53.7423	-33.2937	154.174	48.0575	8.03253	195.159	72.1548	-27.6845	178.001	44.8362	-26.7384	166.946	41.4752	4.89144	216.065	82.7584	-3.95814	222.598	85.7389	-24.2084	228.337	98.3315	-43.9019	205.173	101.193	33.3469	199.854	99.3641	69.5609	170.241	113.088	48.8453	
206	1.71667	133.922	97.3995	56.8221	110.313	90.5648	39.1968	90.5312	94.2347	21.0009	74.0064	94.2986	12.1092	162.688	116.678	-25.5271	164.958	118.108	-48.9586	174.779	120.128	-73.1391	177.379	88.7074	-30.5068	165.671	54.056	-35.1161	154.291	47.8931	4.18767	196.729	76.6426	-25.299	179.74	43.3054	-25.4121	170.98	40.6335	7.89818	218.035	84.4818	-5.50466	221.826	88.9231	-27.0406	228.864	99.2071	-42.7156	201.228	103.693	32.6129	203.411	99.5664	65.3994	171.115	112.225	47.129	
207	1.725	134.75	96.1608	58.8977	113.235	89.777	38.4333	90.2328	95.0604	23.7791	73.4667	94.1683	16.7005	160.184	117.421	-26.5409	167.07	118.452	-49.7826	173.403	119.084	-72.3506	175.543	84.7528	-34.6281	165.736	54.2739	-36.0372	153.927	48.2679	3.99749	196.754	77.1868	-25.2356	180.397	43.0727	-26.0321	171.847	38.4641	2.46314	217.755	84.5137	-5.86003	226.778	87.6775	-27.5052	229.241	100.217	-43.716	202.569	104.731	32.2188	205.329	100.896	68.7831	170.797	113.953	49.4654	
208	1.73333	134.195	95.3902	57.5152	111.904	88.0562	42.5903	91.7476	92.662	23.742	71.0315	95.1917	16.6031	158.114	115.604	-24.9754	162.162	116.656	-47.5764	172.327	119.536	-77.2313	173.809	83.835	-34.8904	166.218	50.9493	-36.1235	157.142	44.2182	2.27378	194.038	76.0731	-27.2135	181.22	45.9958	-30.7418	171.903	35.5086	1.49111	218.352	84.4336	-11.5	225.862	85.3198	-24.924	228.549	98.3032	-43.6784	200.68	102.173	30.9774	203.228	102.072	63.9711	171.279	112.521	44.0418	
209	1.74167	131.784	92.5927	59.0646	111.111	84.1155	40.9769	92.0251	86.2605	26.4321	69.6797	88.1096	18.3841	155.036	110.413	-23.6562	160.989	111.486	-50.4638	168.581	113.226	-73.1883	174.803	81.0781	-32.6874	165.213	46.2972	-35.2195	154.102	41.6657	2.39	192.721	72.0128	-28.367	180.475	36.4463	-26.7794	171.977	31.2878	5.68621	216.381	82.2912	-11.3537	222.008	85.229	-31.0636	227.241	95.9697	-46.4225	203.423	99.5926	27.7543	204.229	98.2286	63.1448	171.394	108.591	44.036	
210	1.75	135.597	87.3954	59.6651	111.752	78.0056	40.2785	89.7684	78.6357	26.2764	71.2099	77.2132	24.6975	150.911	104.213	-27.1967	156.085	104.263	-48.8177	160.192	108.011	-77.6182	171.31	71.8862	-35.7152	158.088	40.7811	-34.3099	154.241	34.9106	2.86088	191.497	67.6167	-26.816	177.052	33.7262	-27.2762	168.171	25.6588	3.00323	215.028	77.5291	-7.93682	217.882	79.4544	-29.8057	221.99	89.3205	-49.6918	196.826	97.2302	28.8346	200.789	99.26	64.9352	166.668	106.885	45.7897	
211	1.75833	128.412	82.7114	60.4689	106.868	71.6555	49.9562	84.2286	71.8042	34.6176	64.8767	69.5591	30.6519	145.642	94.9407	-28.6785	148.411	95.5593	-50.7132	153.451	97.1563	-78.1726	165.484	67.8404	-32.846	158.372	33.8095	-32.6553	152.823	27.6325	5.65709	184.95	58.0101	-27.9008	178.417	24.4387	-24.7933	171.449	18.7633	7.25226	211.726	72.3278	-11.7641	212.229	72.5638	-26.9975	218.711	82.3917	-51.7076	193.366	94.1903	25.7917	199.897	93.838	63.0191	164.487	102.561	43.0046	
212	1.76667	125.82	77.0904	59.8217	108.621	62.8856	49.1336	81.9847	63.1669	38.5845	62.1148	60.6529	33.9443	141.362	85.971	-27.4228	143.68	83.7613	-48.7884	148.481	85.3659	-77.1993	164.235	56.0708	-34.1084	155.588	25.291	-30.865	153.259	20.2861	8.47287	187.257	48.1289	-27.7355	174.963	16.9666	-21.6013	169.807	13.1477	10.9233	209.419	65.2128	-13.4864	210.96	65.8129	-31.4016	214.868	72.817	-52.769	191.618	89.6953	26.9003	193.834	91.3944	59.5244	159.314	96.4842	43.5874	
213	1.775	127.172	72.2146	61.9198	103.315	59.759	48.3415	80.8339	56.9175	37.0149	59.8643	55.5969	32.1121	139.556	78.1206	-23.7384	141.992	76.2826	-49.1971	147.012	76.9157	-77.9742	163.401	52.3276	-30.7491	156.962	16.1133	-27.9964	155.242	17.1958	14.4489	182.05	43.9391	-26.6661	176.461	12.5621	-20.7368	167.076	10.1556	14.5346	206.703	60.4339	-10.7665	210.671	58.7289	-30.5582	208.996	66.1214	-50.9868	191.413	85.5564	29.2026	195.069	89.0627	62.7739	157.232	92.3916	47.1471	
214	1.78333	126.352	69.5005	64.2301	108.063	55.7172	50.8626	80.6998	54.7989	37.6027	62.5914	51.6691	36.0554	140.396	74.3956	-25.2082	145.287	72.2811	-49.1968	148.672	72.1739	-76.1879	161.924	47.7706	-30.8388	160.953	13.7475	-28.0147	152.747	13.177	12.6926	182.878	41.0805	-26.2863	176.626	7.54855	-18.9431	171.095	6.15599	13.3534	209.242	57.4641	-11.1947	208.614	56.5285	-31.7447	209.68	63.6741	-52.0638	193.152	82.1104	24.9545	197.341	88.287	59.5345	160.217	87.9724	46.1461	
215	1.79167	128.981	68.9197	62.7325	107.217	56.8592	48.1207	85.8326	54.9888	37.5299	64.8726	53.6138	34.8274	145.6	74.8967	-26.0061	147.196	74.8045	-50.4986	152.953	73.8136	-74.8623	162.757	47.0819	-31.8597	160.757	14.4018	-28.654	157.239	14.4481	13.3506	188.92	41.1853	-24.9206	176.691	8.41968	-18.7648	171.226	7.19812	11.0173	209.237	58.4627	-11.2763	213.578	57.1438	-27.8274	213.367	65.6972	-46.9707	192.876	81.7169	28.5783	196.561	86.8129	61.4799	158.478	89.6203	44.6393	
216	1.8	129.605	71.35	63.1431	111.352	58.7098	47.9958	88.4832	57.9908	32.6453	66.8747	58.8032	31.2848	146.468	79.8776	-24.2517	150.856	79.2101	-49.0841	158.721	79.9431	-74.6071	166.453	54.7955	-29.895	162.683	17.2292	-26.5671	154.406	17.8316	9.84713	188.344	45.4736	-27.2421	181.734	14.1895	-22.6945	172.497	13.1008	12.1875	212.351	60.5818	-10.2312	212.764	60.7381	-30.5854	219.746	69.4193	-51.6189	194.46	84.6945	26.3815	201.265	88.2561	59.642	164.692	89.4635	48.0573	
217	1.80833	134.229	73.6265	63.2584	112.451	63.9395	49.0574	88.9943	65.2317	32.4178	73.0168	62.4033	28.5159	148.449	87.3698	-24.2243	152.56	87.3254	-49.9647	161.767	88.3159	-75.5051	172.072	57.1478	-33.2702	166.017	23.7426	-30.0187	159.539	24.5931	10.3823	192.141	50.752	-28.1631	185.17	18.2144	-23.2051	174.604	16.9667	8.64677	216.636	64.7703	-9.67617	218.696	65.5766	-28.2447	219.183	76.7103	-47.8636	200.006	84.4987	29.7531	204.149	89.6242	60.0156	167.258	92.6061	46.3541	
218	1.81667	137.48	78.3951	61.9972	115.097	69.3815	44.3496	91.8357	72.4511	29.4065	74.111	72.112	27.5955	153.415	94.9305	-24.0535	157.764	96.402	-50.6391	169.494	98.9803	-76.0228	173.018	67.5116	-34.0677	168.341	31.093	-32.8348	161.897	30.2085	7.30505	195.353	57.8645	-29.5469	189.292	26.9061	-29.0593	179.124	23.0807	4.25293	216.787	71.9025	-8.66629	223.854	72.379	-25.3736	222.696	84.5382	-50.5627	202.52	91.8323	31.7977	204.052	93.355	63.623	172.259	97.9078	46.0243	
219	1.825	140.697	81.1225	60.5787	116.05	75.138	44.0038	95.3273	79.842	26.6783	77.3004	79.2423	23.4401	161.242	101.205	-23.2012	166.571	105.2	-51.4004	174.266	108.954	-72.9668	178.556	74.8073	-36.7179	171.706	41.3975	-37.7261	163.608	35.5223	0.671653	201.841	65.1688	-30.7216	189.58	35.2769	-31.3959	179.693	29.4281	1.33945	220.899	78.9751	-11.551	224.676	80.2486	-25.9836	229.483	91.3779	-47.2616	206.128	94.3064	30.329	205.826	94.4374	63.3691	171.942	100.332	48.9291	
220	1.83333	139.48	87.4343	59.6042	119.572	81.2233	38.7081	97.3817	84.8351	25.4601	78.4492	87.7884	18.1715	161.527	111.13	-26.5415	168.093	115.51	-52.2223	176.343	120.622	-74.5167	183.783	81.4668	-37.8122	171.096	47.246	-38.5774	168.521	42.0645	-1.242	203.733	76.1826	-28.7834	194.167	41.7403	-33.7706	182.276	35.5198	-2.61743	223.783	83.8068	-10.4372	233.218	88.2454	-29.4651	232.865	100.817	-45.8264	210.125	98.3621	29.9649	207.377	95.7812	65.833	174.75	105.616	43.0336	
221	1.84167	141.343	90.1234	56.3838	119.454	84.0177	40.7736	101.602	88.2988	25.09	80.1939	92.5097	16.7388	167.275	116.326	-26.1634	173.027	120.093	-47.7872	178.621	127.599	-72.351	185.995	88.1134	-35.8681	171.291	53.6772	-40.3132	167.744	46.7829	-3.35226	206.644	80.1179	-28.8644	194.923	45.9812	-34.5443	182.527	39.5343	-5.90679	231.012	87.5101	-8.89013	231.632	92.3753	-26.6161	239.872	104.316	-44.2078	210.435	103.295	32.378	207.711	98.7225	65.6671	177.166	109.896	46.7204	
222	1.85	142.268	92.0582	54.2363	123.465	85.5705	39.7761	98.9271	93.1516	23.3282	81.4834	92.6945	19.9183	166.968	118.336	-27.3329	175.104	123.467	-50.8848	180.264	128.909	-71.4723	184.684	91.5691	-36.0591	172.792	55.9066	-41.5837	166.569	47.4284	-6.10119	204.976	80.4107	-33.1675	195.441	49.5182	-35.8354	184.402	40.811	-3.23578	231.202	91.2705	-13.1463	234.128	96.3872	-30.184	236.5	109.01	-44.3778	213.179	104.898	30.3591	209.867	101.31	61.3402	175.277	111.552	43.0419	
223	1.85833	145.08	91.434	53.7139	120.701	87.4156	36.0332	103.165	89.2902	24.6332	77.5501	94.0647	17.2754	164.847	116.553	-27.5404	168.77	122.253	-51.0583	181.409	126.718	-75.8356	182.911	87.5266	-39.5739	174.804	52.6169	-40.0486	168.353	45.8128	-5.96262	206.273	76.9738	-34.9262	192.427	46.8635	-34.8789	184.266	38.5059	-2.15835	228.014	89.4422	-8.65103	232.593	96.1222	-31.5866	240.365	107.748	-49.679	209.695	106.49	28.8747	209.926	104.638	60.7927	176.299	112.87	45.2857	
224	1.86667	141.623	91.7112	54.9099	121.753	84.0777	35.1019	101.087	86.2324	23.0499	78.6635	87.6282	19.9207	164.155	111.346	-30.1369	168.322	114.211	-53.5962	176.958	120.14	-78.8726	181.235	84.0624	-39.4336	175.604	46.753	-38.8737	166.651	41.0784	-3.15302	206.16	75.7354	-30.6178	193.211	40.7403	-33.3451	181.747	35.534	-1.45871	227.118	87.9399	-13.0963	229.512	92.4096	-31.8696	235.614	103.207	-48.3829	210.596	103.732	24.08	209.902	101.334	58.7792	177.154	111.294	43.222	
225	1.875	139.898	88.421	54.0158	119.273	78.4727	40.3093	97.8873	81.4191	24.3716	77.2315	81.5655	21.6857	162.707	104.119	-30.397	161.88	106.457	-56.3756	174.607	107.966	-78.3031	179.768	74.7923	-38.6728	169.918	41.1366	-37.6914	165.663	33.5914	-1.77054	202.893	65.6376	-33.2541	189.526	36.9416	-31.483	185.441	26.7106	0.684194	222.358	84.06	-16.1406	231.691	84.2539	-31.7001	234.017	97.3405	-53.8634	204.387	100.054	22.3362	210.247	100.49	57.6521	173.125	108.628	43.2621	
226	1.88333	140.723	83.2089	58.0145	114.129	74.1464	40.1671	94.8376	74.0737	29.604	72.7398	75.8655	26.6185	153.871	92.9681	-28.756	160.642	91.8349	-55.728	168.64	91.4902	-78.3095	178.629	62.0916	-37.4359	167.534	29.3716	-32.4887	165.638	25.5505	5.35252	197.475	55.9177	-31.2509	189.964	26.9586	-26.7889	181.369	20.3123	4.40652	220.577	75.0461	-12.8239	223.611	74.6403	-32.442	228.404	85.0501	-51.0154	205.092	97.7822	20.5241	203.445	99.6476	58.2809	168.898	102.59	40.2527	
227	1.89167	137.842	77.1701	59.1558	111.454	65.1442	46.2758	91.7951	63.1035	30.007	73.9238	62.4763	29.6615	152.685	77.614	-32.3659	154.116	73.8776	-58.3865	161.298	70.9299	-80.2053	174.712	49.0841	-34.3124	166.341	16.1524	-26.3533	164.631	15.2379	11.6601	194.008	44.0153	-27.6018	185.86	13.843	-19.9392	181.767	11.92	15.9798	216.396	64.4719	-14.6691	220.744	62.2246	-34.2196	226.557	68.7031	-52.9993	199.157	89.7813	20.7271	199.828	97.0422	57.394	167.767	96.8488	41.4809	
228	1.9	130.022	73.846	57.6207	109.666	61.6473	50.0119	90.3755	57.4247	32.0784	69.0341	56.9402	31.6926	149.821	68.8623	-27.9569	151.086	64.7163	-51.5597	155.146	60.4856	-80.7288	173.09	44.554	-29.4466	166.287	9.9635	-22.8282	160.038	10.4611	16.5346	191.006	40.8397	-22.8149	186.814	5.77395	-13.1259	178.947	7.68282	20.5583	217.806	56.9681	-10.6528	218.472	54.0742	-27.1256	219.975	60.753	-51.7135	195.513	86.0154	24.1138	196.632	93.9431	56.4692	160.201	92.6468	38.2001	
